<svg  xmlns="http://www.w3.org/2000/svg" width="27" height="24" fill="none">
  <symbol fill="none" viewBox="0 0 27 24" id="svg-heart-initial-state" xmlns="http://www.w3.org/2000/svg">
<path fill="#000" d="M6 0H3v3h3V0Zm3 0H6v3h3V0ZM3 3H0v3h3V3Zm0 3H0v3h3V6Zm0 3H0v3h3V9Zm9-9H9v3h3V0ZM6 12H3v3h3v-3Zm3 3H6v3h3v-3Zm3 3H9v3h3v-3Zm9-18h3v3h-3V0Zm-3 0h3v3h-3V0Zm6 3h3v3h-3V3Zm0 3h3v3h-3V6Zm0 3h3v3h-3V9Zm-9-9h3v3h-3V0Zm6 12h3v3h-3v-3Zm-3 3h3v3h-3v-3Zm-3 3h3v3h-3v-3Zm0-15h-3v3h3V3Zm0 18h-3v3h3v-3Z"/>
</symbol>
  <!-- <path fill="#000" d="M6 0H3v3h3V0ZM9 0H6v3h3V0ZM3 3H0v3h3V3ZM3 6H0v3h3V6ZM3 9H0v3h3V9ZM12 0H9v3h3V0ZM6 12H3v3h3v-3ZM9 15H6v3h3v-3ZM12 18H9v3h3v-3ZM21 0h3v3h-3V0ZM18 0h3v3h-3V0ZM24 3h3v3h-3V3ZM24 6h3v3h-3V6ZM24 9h3v3h-3V9ZM15 0h3v3h-3V0ZM21 12h3v3h-3v-3ZM18 15h3v3h-3v-3ZM15 18h3v3h-3v-3ZM15 3h-3v3h3V3ZM15 21h-3v3h3v-3Z"/> -->
</svg>